<svg width="35" height="32" viewBox="0 0 35 32" fill="none" xmlns="http://www.w3.org/2000/svg">
<ellipse cx="17.5" cy="16" rx="17.5" ry="16" fill="#9C88FF"/>
<path d="M12 9C12 6.23858 14.2386 4 17 4C19.7614 4 22 6.23858 22 9C22 11.7614 19.7614 14 17 14C14.2386 14 12 11.7614 12 9Z" fill="black" fill-opacity="0.65"/>
<path d="M17 15C11.4772 15 7 19.4772 7 25C7 25.5523 7.44772 26 8 26C8.55228 26 9 25.5523 9 25C9 20.5817 12.5817 17 17 17C21.4183 17 25 20.5817 25 25C25 25.5523 25.4477 26 26 26C26.5523 26 27 25.5523 27 25C27 19.4772 22.5228 15 17 15Z" fill="black" fill-opacity="0.65"/>
</svg>
